<?xml version="1.0" encoding="UTF-8" standalone="no"?>
<!-- Created with Inkscape (http://www.inkscape.org/) -->

<svg
   xmlns:dc="http://purl.org/dc/elements/1.1/"
   xmlns:cc="http://creativecommons.org/ns#"
   xmlns:rdf="http://www.w3.org/1999/02/22-rdf-syntax-ns#"
   xmlns:svg="http://www.w3.org/2000/svg"
   xmlns="http://www.w3.org/2000/svg"
   xmlns:sodipodi="http://sodipodi.sourceforge.net/DTD/sodipodi-0.dtd"
   xmlns:inkscape="http://www.inkscape.org/namespaces/inkscape"
   width="245.70856mm"
   height="83.779388mm"
   viewBox="0 0 245.70856 83.779388"
   version="1.1"
   id="svg8"
   inkscape:version="0.92.4 (unknown)"
   sodipodi:docname="4GW.svg">
  <defs
     id="defs2" />
  <sodipodi:namedview
     id="base"
     pagecolor="#ffffff"
     bordercolor="#666666"
     borderopacity="1.0"
     inkscape:pageopacity="0.0"
     inkscape:pageshadow="2"
     inkscape:zoom="1.4817757"
     inkscape:cx="338.23172"
     inkscape:cy="184.65404"
     inkscape:document-units="mm"
     inkscape:current-layer="g914"
     showgrid="false"
     inkscape:window-width="1366"
     inkscape:window-height="716"
     inkscape:window-x="0"
     inkscape:window-y="0"
     inkscape:window-maximized="1" />
  <metadata
     id="metadata5">
    <rdf:RDF>
      <cc:Work
         rdf:about="">
        <dc:format>image/svg+xml</dc:format>
        <dc:type
           rdf:resource="http://purl.org/dc/dcmitype/StillImage" />
        <dc:title />
      </cc:Work>
    </rdf:RDF>
  </metadata>
  <g
     inkscape:label="Layer 1"
     inkscape:groupmode="layer"
     id="layer1"
     transform="translate(489.42825,-75.334211)">
    <path
       inkscape:connector-curvature="0"
       id="path823"
       style="font-style:normal;font-variant:normal;font-weight:normal;font-stretch:normal;font-size:10.58333302px;line-height:1.25;font-family:'Armalite Rifle';-inkscape-font-specification:'Armalite Rifle';letter-spacing:0px;word-spacing:0px;fill:#000000;fill-opacity:1;stroke:none;stroke-width:0.93773657"
       d="m -324.35172,96.225531 q 2.83883,0.2931 3.29671,0.65936 l 0.43959,-0.43955 q 0.49448,0 0.65932,2.41757 l -0.21974,0.87914 q -0.87913,0 -0.87913,-1.53847 l -1.3187,1.75825 v 1.098909 h 0.21974 l 0.65933,-0.21974 v 0.21974 l 0.21974,0.21974 v 0.21974 q 0.65937,0 0.65937,-0.65936 h 0.43955 v 0.21974 q 0,2.28941 -0.43955,3.51652 l 0.21974,1.09891 -0.21974,1.09892 0.43955,4.6154 -0.21974,0.65936 h 0.21974 l 0.87914,0.21974 0.65932,-0.21974 1.09892,0.43956 q 0,2.19783 -1.09892,3.51652 l -1.53846,-0.21974 h -0.43955 v 1.53846 l -0.21974,0.21974 v 0.21974 l 0.65932,0.43959 0.87914,-0.21974 0.21974,0.21974 v 0.21974 q 0,3.29671 -1.75824,3.29671 l -1.97805,0.43959 v -0.21974 l -0.21974,0.21974 h -0.87914 l -0.21974,-0.21974 -0.21974,0.21974 h -1.75825 v -0.43937 q 0.87911,0 0.87911,-0.43956 l -0.87911,-0.87914 q 0,0.43959 -1.31872,0.65937 v 0.21974 q 0,0.43955 0.87913,0.43955 v 0.21974 h -1.09891 q -1.70331,0 -2.1978,-1.09891 v -1.3187 l 0.87911,-1.09891 0.21974,0.21974 0.87914,-0.43955 -0.43955,-1.75828 q 0.1648,-2.85716 0.43955,-2.85716 l -0.21974,-0.21974 v -0.21974 q 0,-0.43959 0.65933,-0.43959 l -0.43956,-1.31869 v -3.51648 l -0.21974,-0.87914 0.43956,-4.39566 -0.43956,-1.75825 z m 1.31869,1.75828 v 0.65932 l 0.43955,-0.43955 -0.21974,-0.21974 z m -6.59345,5.274759 h 0.65932 v 0.21974 l -0.43955,3.07697 h -0.21974 l -0.21974,-0.21974 h -0.21974 l -0.21974,0.21974 v 0.21974 l 0.65936,0.21974 0.21974,-0.21974 0.43956,0.65933 q -0.0549,0.49452 -1.97802,1.97805 0,0.43955 -1.53847,1.97802 v 0.43959 l 2.19779,0.21974 1.09892,-0.21974 0.21974,0.21974 v 0.21974 l -0.43955,0.43955 0.21974,0.21974 v 0.21974 q -0.32961,2.41761 -0.87914,2.41761 h -2.85716 l -0.87914,0.21974 -2.19779,-0.65936 h -0.43959 q 0,0.65936 -0.43955,0.65936 h -0.65933 v -2.19783 q 0,-0.54946 0.8791,-0.65936 v -0.21974 l -0.21974,-0.87911 q 0.18324,-0.97072 7.25282,-8.57151 z m 5.27476,2.63738 0.21974,0.21974 h 0.21974 l -0.21974,0.21974 v 0.87914 q 0.87914,0 0.87914,0.43955 l -0.21974,0.21975 h 0.43955 q 0.58607,0 0.87914,-1.3187 -0.65936,0 -0.65936,-1.5385 h -0.21974 v 0.87914 h -0.43956 l -0.21974,-1.09891 q -0.49448,0 -0.65932,1.09891 z m -0.87914,5.93413 q 0,0.65933 -0.65933,0.65933 l -0.65936,-0.21974 v 0.21974 l -0.65933,0.21974 v 0.21974 h 0.87911 v 0.65936 h -0.43956 v 0.21974 q 1.09892,0 1.09892,0.87914 l 1.09891,0.21974 q 0.87911,-0.21974 0.87911,-1.31869 -0.73259,-0.65936 -1.31869,-0.65936 v -0.43955 h 0.87914 q 0,-0.3663 -1.09892,-0.65933 z m -6.81323,1.31869 v 1.09892 h 0.21974 l 1.09891,-0.43959 -0.21974,-1.09892 h -0.65936 z" />
    <path
       inkscape:connector-curvature="0"
       id="path825"
       style="font-style:normal;font-variant:normal;font-weight:normal;font-stretch:normal;font-size:10.58333302px;line-height:1.25;font-family:'Armalite Rifle';-inkscape-font-specification:'Armalite Rifle';letter-spacing:0px;word-spacing:0px;fill:#000000;fill-opacity:1;stroke:none;stroke-width:0.34042552"
       d="m -337.84644,122.05323 0.15957,0.23935 v 0.31916 q -0.34575,0.45878 -1.35638,0.95744 -0.31915,0.88432 -0.31915,2.4734 l 0.0798,2.87235 -0.0798,0.6383 0.71809,0.5585 q 0,0.21278 1.1968,0.47873 l 0.0798,0.55851 q 0,0.44548 -1.43617,0.55852 -0.87766,0 -0.87766,-0.39894 l -0.0798,-0.55851 q -0.39894,0 -0.71809,0.47872 -2.15426,-1.8617 -2.15426,-4.06915 0.31915,-2.8657 0.95744,-3.19149 1.66224,-1.83511 3.59043,-1.83511 z m 1.27659,0 0.31915,0.0798 0.31915,-0.0798 1.11702,0.31915 h 0.15957 l 0.39894,-0.31915 h 0.0798 q 0.17951,0 0.31914,0.79787 h -0.0798 l 0.0798,0.0798 v 0.0798 l -0.0798,0.47872 0.0798,0.0798 q -0.0798,1.67554 -0.71808,1.67554 l -0.23936,0.15957 q -0.3391,-0.45878 -0.39894,-0.95745 l 0.0798,-0.0798 q -0.16622,0 -0.71808,-0.79787 -1.29654,-0.50532 -1.35638,-0.79788 v -0.47872 q 0.0531,-0.23936 0.63829,-0.23936 z m 0.6383,0.39894 v 0.31914 q 0.15957,0 0.15957,0.23936 h 0.0798 l 0.31915,-0.15957 v -0.0798 l -0.15957,-0.15957 -0.15958,0.15957 v -0.15957 l 0.0798,-0.0798 v -0.0798 z m 0.23936,0.79786 v 0.15958 l 0.23937,0.0798 0.15957,-0.15957 v 0.23936 h 0.0798 v -0.23936 l -0.0798,-0.0798 z m 0.15958,3.19149 q 0.27926,0.47872 0.6383,0.47872 l 0.0798,-0.0798 0.23937,0.31915 h 0.0798 q 0,-0.31915 0.15957,-0.31915 l -0.15957,-0.31915 0.55851,-0.0798 -0.0798,0.55852 q 0.21942,0 0.31916,0.79786 -0.0997,0.81782 -0.23937,0.95745 -0.19947,0 -0.63829,-0.55851 h -0.0798 l -0.31914,0.15957 q -0.11309,-0.39893 -0.5585,-0.39893 l -0.23937,0.23936 v 0.23937 l 0.23937,0.31914 -0.15959,0.15958 -0.0798,-0.0798 h -0.0798 v 0.15958 l -0.0798,-0.0798 h -0.15959 v 0.0798 q 0.15959,0 0.15959,0.31914 0.79786,0.13964 0.79786,0.31915 v 0.39894 l 0.39894,0.0798 -0.0798,-0.0798 v -0.0798 l 0.23936,-0.23937 h 0.0798 q 0,0.23937 0.15957,0.23937 l 0.47872,-0.15957 h 0.0798 v 1.27658 l -0.15957,0.15959 h -0.0798 q -0.55851,-0.26597 -0.55851,-1.11703 -0.21277,0.0266 -0.31915,0.39894 l -0.0798,-0.0798 h -0.63831 q 0,0.54522 -1.1968,0.79788 l -0.23937,-0.71809 q 0.32581,-0.56516 0.87766,-1.03723 l -0.0798,-0.0798 v -0.39894 l 0.0798,-0.0798 -0.0798,-0.0798 0.0798,-0.31914 q 0,-0.87766 -0.55851,-0.87766 h -0.63829 l -0.15958,-0.15957 v -0.15958 q 0.11309,-0.87766 0.47872,-0.87766 z m 0,0.55852 0.0798,0.23936 q 0.47872,-0.10641 0.47872,-0.23936 z m 0.71808,0.23936 v 0.0798 l 0.15957,0.23937 -0.0798,0.0798 v 0.0798 l 0.0798,0.0798 h 0.23937 l -0.23937,-0.55851 z m 0.47872,0.15957 v 0.0798 l 0.15959,0.31914 h 0.15957 l 0.0798,-0.39894 -0.23936,-0.15957 z m -7.26063,1.91489 v 0.0798 q 0,0.47872 0.39893,0.47872 l 0.31915,-0.23936 v -0.0798 h -0.23935 v -0.47872 q -0.47873,0.0798 -0.47873,0.23936 z" />
    <path
       inkscape:connector-curvature="0"
       id="path827"
       style="font-style:normal;font-variant:normal;font-weight:normal;font-stretch:normal;font-size:10.58333302px;line-height:1.25;font-family:'Armalite Rifle';-inkscape-font-specification:'Armalite Rifle';letter-spacing:0px;word-spacing:0px;fill:#000000;fill-opacity:1;stroke:none;stroke-width:0.34042552"
       d="m -317.44429,122.07982 1.03723,0.15957 0.0798,-0.0798 h 0.0798 l 0.23936,0.0798 1.2766,-0.0798 h 0.55851 q 0.23936,0.0798 0.23936,0.47872 v 0.39894 q 0,0.11966 -0.79787,0.39894 v 0.0798 q 0,1.26995 1.35638,5.18617 l 0.0798,0.0798 v 0.55852 q -0.39893,0.48537 -0.5585,1.8351 l -0.31916,0.23937 h -0.55851 l -0.95744,0.0798 q -0.379,0 -1.91489,-8.05851 h -0.55851 q -0.23937,0 -0.23937,-1.03723 l 0.15957,-0.15958 0.0798,0.0798 z m 6.94149,0 0.71809,0.0798 0.23935,-0.0798 1.99468,0.15957 0.31915,-0.0798 0.0798,0.0798 q 0,1.19682 -0.71808,1.19682 h -0.71809 l 0.15958,0.63829 q -0.45878,1.72873 -0.63831,1.75532 h -0.15957 v 0.31916 h 0.0798 l 0.0798,-0.0798 h 0.0798 v 0.15957 l -0.15957,0.15957 -0.23935,-0.0798 v 0.15957 q 0.31914,0.0399 0.31914,0.23937 l -0.31914,1.1968 v 0.23937 h -0.0798 q -0.29254,-0.0798 -0.79786,-1.83511 l -0.15958,-0.23935 0.23937,-0.79788 0.0798,0.0798 h 0.0798 l 0.0798,-0.0798 h 0.0798 l 0.23936,0.0798 0.0798,-0.0798 -0.0798,-0.23937 h -0.15957 l -0.31915,0.23937 v -0.31915 l 0.15957,-0.23936 v -0.39894 h 0.15958 q 0,0.31914 0.63829,0.31914 v -0.31914 h -0.23935 v -0.0798 l 0.15957,-0.23937 v -0.0798 l -0.15957,-0.15957 q -0.23937,0 -0.23937,0.23936 l -0.0798,0.0798 h -0.0798 v -0.0798 l 0.0798,-0.71809 q -0.23937,0 -0.23937,-0.31914 l -0.31914,-0.15959 -0.0798,0.39894 h -0.55851 v -0.39894 q 0,-0.71808 0.39894,-0.71808 z m -2.31383,0.0798 h 0.15958 q 1.03723,0 1.03723,0.23936 v 0.23936 l -0.15958,0.23937 v 0.15957 q 0.37234,0 0.6383,1.59574 h -0.15958 v 0.15958 l 0.0798,-0.0798 h 0.0798 l 0.47872,1.67552 -0.15958,0.15958 v 0.15957 l 0.0798,-0.0798 h 0.0798 q 0.31914,0.31914 0.39894,1.1968 l 0.63829,1.2766 q -0.17287,2.15426 -0.63829,2.15426 0,0.15957 -0.31915,0.15957 l -0.0798,-0.0798 -0.39893,0.0798 h -0.7181 q -0.31914,-0.13297 -0.63829,-0.95744 l 0.15957,-0.15957 q -0.35239,0 -1.51595,-4.30852 -0.15957,-0.02 -0.23936,-0.55851 v -0.15957 q 0.29255,-1.67554 0.47873,-1.67554 l -0.0798,-0.0798 v -0.0798 q 0.13963,-1.2766 0.79788,-1.2766 z m 3.27127,0.15957 -0.0798,0.31915 h 0.31915 l 0.0798,-0.31915 z m 0,0.71809 -0.0798,0.31915 0.0798,-0.0798 h 0.0798 l 0.0798,0.0798 h 0.0798 v -0.15958 l 0.0798,-0.0798 -0.0798,-0.0798 -0.23937,-0.0798 z m 0.55851,0.31915 h 0.15959 l 0.0798,-0.31915 q -0.11966,0 -0.23937,0.31915 z m -4.46808,0.23935 h 0.0798 l 0.23935,-0.23935 v -0.0798 h -0.0798 q -0.11966,0 -0.23936,0.31915 z m -2.55319,0.0798 0.0798,0.0798 h 0.0798 l 0.15957,-0.23937 h -0.15957 z m 2.63298,0.23936 0.0798,0.0798 h 0.0798 v -0.31916 h 0.15959 v 0.15959 h 0.0798 v -0.15959 l -0.0798,-0.0798 h -0.0798 q -0.11966,0 -0.23936,0.31915 z m -2.4734,0.15957 v 0.0798 h 0.23935 v -0.15957 z m 0.95745,0.15959 v 0.23935 h 0.15957 l -0.0798,-0.23935 z m 2.23404,0.15957 h 0.0798 l 0.15957,-0.15957 h -0.0798 z m 3.27128,1.11701 v 0.0798 l 0.15957,0.15958 h 0.0798 l -0.0798,-0.23937 z m -2.15426,0.31916 0.0798,0.0798 h 0.0798 q 0,-0.15957 0.31915,-0.15957 l -0.15957,-0.15958 h -0.0798 z m -1.51596,0.71809 v 0.15957 l 0.15957,0.23935 -0.15957,0.15959 v 0.0798 h 0.0798 l 0.39893,-0.31916 -0.23936,-0.23935 0.0798,-0.0798 v -0.0798 h -0.0798 z m -2.47341,0.23935 v 0.0798 l 0.0798,0.23937 h 0.23937 v -0.0798 l -0.23937,-0.23937 z m 3.8298,1.75532 v 0.15957 h 0.23935 v -0.15957 z m -3.19149,1.59574 -0.0798,0.0798 v 0.15958 h 0.0798 l 0.15957,-0.15958 -0.0798,-0.0798 z" />
    <path
       inkscape:connector-curvature="0"
       id="path829"
       style="font-style:normal;font-variant:normal;font-weight:normal;font-stretch:normal;font-size:10.58333302px;line-height:1.25;font-family:'Armalite Rifle';-inkscape-font-specification:'Armalite Rifle';letter-spacing:0px;word-spacing:0px;fill:#000000;fill-opacity:1;stroke:none;stroke-width:0.26458332"
       d="m -257.90674,120.54564 0.12402,0.18604 v 0.24805 q -0.0775,0.20153 -1.11621,0.80615 -0.10335,0.93017 -0.18603,0.93017 l -0.24805,0.062 h -0.31006 q 0,-0.18604 -0.12402,-0.18604 h -0.43408 l -0.18604,0.18604 0.062,0.24804 0.062,-0.062 h 0.12402 q 0.12402,0 0.12402,0.18604 h 0.12403 v -0.12403 h 0.12402 v 0.24805 q -0.31006,0 -0.31006,0.49609 l -0.18603,0.12403 q -0.24805,-0.24805 -0.43409,-0.24805 v -0.12402 h 0.4961 v -0.18604 q 0,-0.12402 -0.24805,-0.12402 l -0.062,-0.37207 h -0.12403 q 0,0.31006 -0.12402,0.31006 v -0.4961 q -0.43408,0 -0.43408,-0.12402 0.0879,-0.43408 0.24805,-0.43408 h 0.062 v 0.12402 h 0.37207 l 0.31006,-0.062 -0.12403,-0.24805 h -0.062 l -0.18603,0.12403 -0.12403,-0.18604 q 0.20671,-0.28422 0.62012,-0.49609 l 0.18604,0.062 -0.062,-0.062 v -0.12403 q 0.83199,-0.62011 1.86036,-0.62011 z m 0.99219,0 0.24804,0.062 0.24805,-0.062 0.86817,0.24805 h 0.12402 l 0.31006,-0.24805 h 0.062 q 0.13953,0 0.24805,0.62012 h -0.062 l 0.062,0.062 v 0.062 l -0.062,0.37208 0.062,0.062 q -0.062,1.30224 -0.55811,1.30224 l -0.18603,0.12403 q -0.64079,-1.5503 -1.11622,-1.5503 -0.64078,-0.24804 -0.74414,-0.49609 v -0.37207 q 0.0413,-0.18604 0.4961,-0.18604 z m -2.41846,0.74414 v 0.18604 l 0.12402,0.12402 0.18604,-0.12402 0.12402,0.12402 h 0.062 v -0.12402 l 0.062,-0.062 -0.12403,-0.12403 h -0.062 l -0.062,0.062 h -0.062 z m -0.49609,0.68213 -0.062,0.062 v 0.12402 l 0.12402,0.12402 h 0.49609 v -0.24804 l -0.18603,-0.062 -0.062,0.062 h -0.18604 l -0.062,-0.062 z m 0.24804,1.11621 h 0.18604 v 0.062 l -0.12402,0.12402 -0.062,-0.062 z m -1.79834,0.062 h 0.12403 l 0.24804,0.062 0.18604,-0.062 v 0.24804 q -0.12402,0 -0.12402,0.18604 h -0.062 z m 2.1084,0 h 0.18604 v 0.37207 l -0.12403,0.12402 -0.062,-0.062 v -0.062 l 0.062,-0.062 v -0.062 z m -2.1084,0.31006 0.062,0.062 v 0.062 l -0.062,0.062 h -0.062 l -0.062,-0.062 v -0.062 l 0.062,-0.062 z m 1.36426,0 h 0.062 l 0.12403,0.12402 v 0.24805 h -0.062 l -0.12403,-0.12403 z m 3.90674,0.49609 0.31006,0.062 h 0.62012 l 0.24804,-0.062 0.24805,0.18603 -0.062,0.37207 0.062,0.062 v 0.062 l -0.062,0.18603 0.062,0.18604 -0.12402,0.62012 0.062,0.062 v 1.86035 q 0,0.12402 -0.18604,0.12402 -0.12919,0 -0.68213,-0.5581 l -0.18603,-0.062 q -1.00769,0.62012 -1.30225,0.62012 l -0.18603,-0.5581 q 0.25321,-0.43925 0.68213,-0.80616 l -0.062,-0.062 v -0.31006 l 0.062,-0.062 -0.062,-0.062 0.062,-0.24805 q 0,-0.68213 -0.43409,-0.68213 h -0.49609 l -0.12402,-0.12402 v -0.24805 l 0.062,-0.062 v -0.062 l 1.17822,0.12402 0.18604,-0.062 0.062,0.062 0.062,-0.18603 -0.062,-0.24805 0.062,-0.062 z m -5.20898,0.49609 0.12402,0.12403 0.31006,-0.062 0.062,0.062 h 0.062 l -0.062,0.062 v 0.12402 l 0.18603,-0.062 -0.062,-0.062 v -0.062 l 0.062,-0.062 h 0.12403 v 0.062 l 0.62012,-0.062 h 0.37207 l 0.43408,0.062 0.062,0.93017 v 0.37207 q 0.28939,1.24024 1.24023,1.24024 0.24805,0 0.24805,0.49609 0,0.16536 -0.43408,0.37207 h -0.062 l -0.31006,-0.062 -0.062,0.062 -0.12403,-0.12402 h -0.18603 l -0.18604,0.12402 h -0.31006 q -1.42627,-0.56844 -1.42627,-1.0542 -0.43408,-0.40824 -0.43408,-0.62012 l 0.062,-0.062 h 0.062 l 0.12402,0.12403 h 0.062 q 0,-0.18604 -0.43408,-0.18604 -0.43408,-0.93018 -0.43408,-1.67432 l 0.062,-0.062 z m 6.20117,1.61231 0.062,0.062 h 0.062 l 0.12402,-0.24805 h -0.062 z" />
    <path
       inkscape:connector-curvature="0"
       id="path831"
       style="font-style:normal;font-variant:normal;font-weight:normal;font-stretch:normal;font-size:10.58333302px;line-height:1.25;font-family:'Armalite Rifle';-inkscape-font-specification:'Armalite Rifle';letter-spacing:0px;word-spacing:0px;fill:#000000;fill-opacity:1;stroke:none;stroke-width:0.26458332"
       d="m -254.0155,120.46296 0.80615,0.12403 0.062,-0.062 h 0.062 l 0.18604,0.062 0.99218,-0.062 h 0.43409 q 0.18603,0.062 0.18603,0.37207 v 0.31006 q 0,0.093 -0.62012,0.31006 v 0.062 q 0.31006,1.9017 0.68213,2.97657 l -0.18603,0.062 v 0.062 l 0.18603,0.18603 0.062,-0.062 0.37207,0.86817 v 0.43408 q -0.31006,0.37724 -0.43409,1.42627 l -0.24804,0.18603 h -0.43409 l -0.74414,0.062 q -0.31005,-0.46508 -0.31005,-0.80615 v -0.062 l 0.12402,-0.18603 q -0.43408,0 -0.43408,-1.24024 l -0.062,-0.24805 0.37207,-0.12402 v 0.062 l -0.12403,0.37207 0.18604,0.31006 h 0.062 q 0.18603,0 0.18603,-0.37207 h 0.18604 v -0.12402 l -0.55811,-0.31006 0.062,-0.31006 -0.12403,-0.12402 0.062,-0.062 v -0.12403 l -0.18603,-0.18603 q 0,0.43408 -0.18604,0.43408 h -0.12402 l -0.062,-0.37207 0.062,-0.18604 q -0.10852,0 -0.18603,-0.31006 l 0.062,-0.18603 q -0.14986,0 -0.18604,-0.55811 l 0.062,-0.18603 q -0.37207,-0.62529 -0.37207,-1.36426 h -0.43408 q -0.18603,0 -0.18603,-0.80615 l 0.12402,-0.12402 0.062,0.062 z m 5.333,0 2.35645,0.12403 0.24805,-0.062 0.062,0.062 q -0.0827,0.86816 -0.24805,0.86816 l -0.062,-0.062 h -0.062 q 0,0.12402 -0.43408,0.12402 -0.18604,0.14986 -0.68213,2.35645 l -0.24805,1.11621 v 0.18603 h -0.062 q -0.29456,-0.13952 -0.55811,-1.36426 l -0.18603,-0.24804 0.5581,-2.04639 v -0.12402 l -0.93017,-0.062 v -0.31006 q 0,-0.47543 0.24804,-0.55811 z m -1.6123,0.062 q 0.80615,0 0.80615,0.31006 0.75965,3.3228 0.99219,3.53467 v 0.12402 l -0.062,0.062 q -0.37207,0.12402 -0.37207,0.43408 0.37207,0.0103 0.37207,0.37207 h -0.062 q 0.0775,0.43408 0.37207,0.43408 l 0.12402,-0.12402 0.12402,0.37207 h -0.12402 v 0.062 l 0.12402,0.18603 -0.062,0.062 0.062,0.062 v 0.062 l -0.18603,0.5581 -0.062,-0.062 q -0.12403,0 -0.12403,-0.31006 l -0.24804,-0.062 q -0.24805,0.093 -0.24805,0.18604 0,0.2067 0.18603,0.43408 -0.31005,0.1912 -0.31005,0.49609 h -0.31006 l -0.062,-0.062 -0.062,0.062 h -0.18603 q -0.37207,0 -1.11621,-2.85254 -0.12403,0 -0.12403,-0.43408 l -0.43408,-1.11621 0.12403,-0.12402 -0.18604,-0.24805 q 0.40824,-2.41846 0.80615,-2.41846 z m 3.41064,0.68213 0.062,0.18604 h 0.062 v -0.18604 z m -6.32519,0.18604 v 0.12402 l 0.062,-0.062 h 0.062 l 0.18604,0.12402 h 0.062 l -0.18604,-0.18603 z m -0.37207,1.30224 v 0.062 l 0.062,0.062 v 0.062 l -0.12402,0.24805 0.062,0.062 v 0.18603 l -0.062,0.062 v 0.062 l 0.062,0.062 0.062,-0.062 h 0.18604 l 0.18603,0.18603 q 0.49609,-0.12402 0.49609,-0.24805 -0.24804,0 -0.24804,-0.37207 l -0.62012,-0.37207 z m 0.31006,1.17823 v 0.31006 h 0.18603 v -0.062 l -0.12402,-0.24804 z m 0.24804,0.12402 v 0.12402 h 0.12403 l 0.062,-0.24804 h -0.062 z m 4.46485,1.92236 v 0.062 h 0.24804 v -0.12402 z" />
    <text
       id="text821"
       y="140.16574"
       x="-287.8927"
       style="font-style:normal;font-variant:normal;font-weight:normal;font-stretch:normal;font-size:10.58333302px;line-height:1.25;font-family:'Noto Sans';-inkscape-font-specification:'Noto Sans';letter-spacing:0px;word-spacing:0px;fill:#000000;fill-opacity:1;stroke:none;stroke-width:0.26458332"
       xml:space="preserve"><tspan
         style="font-style:normal;font-variant:normal;font-weight:normal;font-stretch:normal;font-family:'Armalite Rifle';-inkscape-font-specification:'Armalite Rifle';stroke-width:0.26458332"
         y="140.16574"
         x="-287.8927"
         id="tspan819"
         sodipodi:role="line">4GW gw</tspan></text>
    <text
       xml:space="preserve"
       style="font-style:normal;font-variant:normal;font-weight:normal;font-stretch:normal;font-size:10.58333302px;line-height:1.25;font-family:'Noto Sans';-inkscape-font-specification:'Noto Sans';letter-spacing:0px;word-spacing:0px;fill:#000000;fill-opacity:1;stroke:none;stroke-width:0.26458332"
       x="-287.8927"
       y="149.27222"
       id="text836"><tspan
         sodipodi:role="line"
         id="tspan834"
         x="-287.8927"
         y="149.27222"
         style="font-style:normal;font-variant:normal;font-weight:normal;font-stretch:normal;font-family:'Black Ops One';-inkscape-font-specification:'Black Ops One';stroke-width:0.26458332">4GW gw</tspan></text>
    <text
       id="text840"
       y="159.09293"
       x="-288.33908"
       style="font-style:normal;font-variant:normal;font-weight:normal;font-stretch:normal;font-size:10.58333302px;line-height:1.25;font-family:'Noto Sans';-inkscape-font-specification:'Noto Sans';letter-spacing:0px;word-spacing:0px;fill:#000000;fill-opacity:1;stroke:none;stroke-width:0.26458332"
       xml:space="preserve"><tspan
         style="font-style:normal;font-variant:normal;font-weight:normal;font-stretch:normal;font-family:'Major Snafu';-inkscape-font-specification:'Major Snafu';stroke-width:0.26458332"
         y="159.09293"
         x="-288.33908"
         id="tspan838"
         sodipodi:role="line">4GW gw</tspan></text>
    <path
       d="m -287.03304,75.334211 q 2.83883,0.2931 3.29671,0.65936 l 0.43959,-0.43955 q 0.49448,0 0.65932,2.41757 l -0.21974,0.87914 q -0.87913,0 -0.87913,-1.53847 l -1.3187,1.75825 v 1.098909 h 0.21974 l 0.65933,-0.21974 v 0.21974 l 0.21974,0.21974 v 0.21974 q 0.65937,0 0.65937,-0.65936 h 0.43955 v 0.21974 q 0,2.28941 -0.43955,3.51652 l 0.21974,1.09891 -0.21974,1.09892 0.43955,4.6154 -0.21974,0.65936 h 0.21974 l 0.87914,0.21974 0.65932,-0.21974 1.09892,0.43956 q 0,2.19783 -1.09892,3.51652 l -1.53846,-0.21974 h -0.43955 v 1.53846 l -0.21974,0.21974 v 0.21974 l 0.65932,0.43959 0.87914,-0.21974 0.21974,0.21974 V 97.532 q 0,3.29671 -1.75824,3.29671 l -1.97805,0.43959 v -0.21974 l -0.21974,0.21974 h -0.87914 l -0.21974,-0.21974 -0.21974,0.21974 h -1.75825 v -0.43937 q 0.87911,0 0.87911,-0.43956 l -0.87911,-0.87914 q 0,0.43959 -1.31872,0.65937 v 0.21974 q 0,0.43955 0.87913,0.43955 v 0.21974 h -1.09891 q -1.70331,0 -2.1978,-1.09891 v -1.3187 l 0.87911,-1.09891 0.21974,0.21974 0.87914,-0.43955 -0.43955,-1.75828 q 0.1648,-2.85716 0.43955,-2.85716 l -0.21974,-0.21974 v -0.21974 q 0,-0.43959 0.65933,-0.43959 l -0.43956,-1.31869 v -3.51648 l -0.21974,-0.87914 0.43956,-4.39566 -0.43956,-1.75825 z m 1.31869,1.75828 v 0.65932 l 0.43955,-0.43955 -0.21974,-0.21974 z m -6.59345,5.274759 h 0.65932 v 0.21974 l -0.43955,3.07697 h -0.21974 l -0.21974,-0.21974 h -0.21974 l -0.21974,0.21974 v 0.21974 l 0.65936,0.21974 0.21974,-0.21974 0.43956,0.65933 q -0.0549,0.49452 -1.97802,1.97805 0,0.43955 -1.53847,1.97802 v 0.43959 l 2.19779,0.21974 1.09892,-0.21974 0.21974,0.21974 v 0.21974 l -0.43955,0.43955 0.21974,0.21974 v 0.21974 q -0.32961,2.41761 -0.87914,2.41761 h -2.85716 l -0.87914,0.21974 -2.19779,-0.65936 h -0.43959 q 0,0.65936 -0.43955,0.65936 h -0.65933 v -2.19783 q 0,-0.54946 0.8791,-0.65936 v -0.21974 l -0.21974,-0.87911 q 0.18324,-0.97072 7.25282,-8.57151 z m 5.27476,2.63738 0.21974,0.21974 h 0.21974 l -0.21974,0.21974 v 0.87914 q 0.87914,0 0.87914,0.43955 l -0.21974,0.21975 h 0.43955 q 0.58607,0 0.87914,-1.3187 -0.65936,0 -0.65936,-1.5385 h -0.21974 v 0.87914 h -0.43956 l -0.21974,-1.09891 q -0.49448,0 -0.65932,1.09891 z m -0.87914,5.93413 q 0,0.65933 -0.65933,0.65933 l -0.65936,-0.21974 v 0.21974 l -0.65933,0.21974 v 0.21974 h 0.87911 v 0.65936 h -0.43956 v 0.21974 q 1.09892,0 1.09892,0.87914 l 1.09891,0.21974 q 0.87911,-0.21974 0.87911,-1.31869 -0.73259,-0.65936 -1.31869,-0.65936 v -0.43955 h 0.87914 q 0,-0.3663 -1.09892,-0.65933 z m -6.81323,1.31869 v 1.09892 h 0.21974 l 1.09891,-0.43959 -0.21974,-1.09892 h -0.65936 z"
       style="font-style:normal;font-variant:normal;font-weight:normal;font-stretch:normal;font-size:10.58333302px;line-height:1.25;font-family:'Armalite Rifle';-inkscape-font-specification:'Armalite Rifle';letter-spacing:0px;word-spacing:0px;fill:#000000;fill-opacity:1;stroke:none;stroke-width:0.93773657"
       id="path886"
       inkscape:connector-curvature="0" />
    <path
       inkscape:connector-curvature="0"
       id="path888"
       style="font-style:normal;font-variant:normal;font-weight:normal;font-stretch:normal;font-size:10.58333302px;line-height:1.25;font-family:'Armalite Rifle';-inkscape-font-specification:'Armalite Rifle';letter-spacing:0px;word-spacing:0px;fill:#000000;fill-opacity:1;stroke:none;stroke-width:0.43913636"
       d="m -299.1396,98.36249 0.20584,0.30876 v 0.41173 q -0.44599,0.5918 -1.74968,1.23505 -0.41172,1.14072 -0.41172,3.19061 l 0.10296,3.70519 -0.10296,0.82342 0.92635,0.7204 q 0,0.27448 1.54383,0.61757 l 0.10295,0.72044 q 0,0.57465 -1.85262,0.72051 -1.13215,0 -1.13215,-0.51466 l -0.10295,-0.72041 q -0.51463,0 -0.92632,0.6175 -2.77894,-2.40153 -2.77894,-5.24905 0.41172,-3.69667 1.23508,-4.11689 2.14425,-2.36725 4.63152,-2.36725 z m 1.64675,0 0.41171,0.10295 0.41165,-0.10295 1.44091,0.41171 h 0.20586 l 0.51463,-0.41171 h 0.10296 q 0.23153,0 0.41167,1.02926 h -0.10293 l 0.10293,0.10291 v 0.10292 l -0.10293,0.61756 0.10293,0.10295 q -0.10293,2.16135 -0.92633,2.16135 l -0.30878,0.20584 q -0.43741,-0.59179 -0.51457,-1.23506 l 0.10293,-0.10293 q -0.21441,0 -0.92633,-1.02921 -1.67246,-0.65183 -1.74966,-1.02923 V 98.6713 q 0.0683,-0.30878 0.82337,-0.30878 z m 0.82336,0.51466 v 0.41167 q 0.20584,0 0.20584,0.30872 h 0.10296 l 0.4117,-0.20579 V 99.2888 l -0.20585,-0.20583 -0.20585,0.20583 v -0.20583 l 0.10293,-0.10296 v -0.10293 z m 0.30878,1.02917 v 0.20587 l 0.30879,0.10293 0.20584,-0.20584 v 0.30878 h 0.10296 v -0.30878 l -0.10296,-0.10295 z m 0.20585,4.11689 q 0.36025,0.61755 0.82341,0.61755 l 0.1029,-0.10293 0.30879,0.4117 h 0.10296 q 0,-0.4117 0.20583,-0.4117 l -0.20583,-0.41172 0.72046,-0.1029 -0.10293,0.72046 q 0.28302,0 0.41168,1.02919 -0.1286,1.05496 -0.30877,1.23507 -0.2573,0 -0.82339,-0.72044 h -0.10292 l -0.41166,0.20587 q -0.14589,-0.51464 -0.72046,-0.51464 l -0.3088,0.30877 v 0.3088 l 0.3088,0.41164 -0.20587,0.20585 -0.10296,-0.10293 h -0.10293 v 0.20585 l -0.10295,-0.10292 h -0.20581 v 0.10292 q 0.20581,0 0.20581,0.41171 1.02925,0.18011 1.02925,0.41169 v 0.51459 l 0.51457,0.10295 -0.1029,-0.10295 v -0.10295 l 0.30875,-0.30874 h 0.10293 q 0,0.30874 0.20584,0.30874 l 0.61755,-0.20578 h 0.10296 v 1.64673 l -0.20584,0.20583 h -0.10296 q -0.72048,-0.34306 -0.72048,-1.44092 -0.27445,0.0344 -0.41164,0.51463 l -0.10296,-0.10296 h -0.82342 q 0,0.70332 -1.54382,1.02923 l -0.30875,-0.92629 q 0.42024,-0.72904 1.13214,-1.33798 l -0.10296,-0.10293 v -0.51466 l 0.10296,-0.10293 -0.10296,-0.10289 0.10296,-0.41171 q 0,-1.13212 -0.7205,-1.13212 h -0.82333 l -0.20585,-0.20585 v -0.20587 q 0.14589,-1.13212 0.61754,-1.13212 z m 0,0.72051 0.10296,0.30877 q 0.61755,-0.1373 0.61755,-0.30877 z m 0.92628,0.30877 v 0.10296 l 0.20586,0.30873 -0.10296,0.10293 v 0.10296 l 0.10296,0.10293 h 0.30879 l -0.30879,-0.72041 z m 0.61755,0.20584 v 0.1029 l 0.2059,0.4117 h 0.20583 l 0.10294,-0.5146 -0.30877,-0.20584 z m -9.36596,2.47014 v 0.10293 q 0,0.61749 0.51462,0.61749 l 0.41172,-0.30872 v -0.10292 h -0.30877 v -0.61756 q -0.61757,0.10293 -0.61757,0.30878 z" />
    <path
       inkscape:connector-curvature="0"
       id="path890"
       style="font-style:normal;font-variant:normal;font-weight:normal;font-stretch:normal;font-size:10.58333302px;line-height:1.25;font-family:'Armalite Rifle';-inkscape-font-specification:'Armalite Rifle';letter-spacing:0px;word-spacing:0px;fill:#000000;fill-opacity:1;stroke:none;stroke-width:0.44707635"
       d="m -283.35014,98.23891 1.36217,0.20959 0.10482,-0.10482 h 0.10478 l 0.31432,0.10482 1.67655,-0.10482 h 0.73352 q 0.31435,0.10482 0.31435,0.62871 v 0.52396 q 0,0.15712 -1.04787,0.52387 v 0.10482 q 0,1.66783 1.78133,6.81096 l 0.10479,0.10477 v 0.73349 q -0.52392,0.63745 -0.7335,2.41001 l -0.41909,0.31437 h -0.73351 l -1.2574,0.10479 q -0.49772,0 -2.51478,-10.58313 h -0.73352 q -0.31437,0 -0.31437,-1.36217 l 0.20959,-0.20957 0.10478,0.10479 z m 9.11616,0 0.94304,0.10482 0.31436,-0.10482 2.61955,0.20959 0.41916,-0.10482 0.10482,0.10482 q 0,1.57175 -0.9431,1.57175 h -0.94303 l 0.20957,0.8383 q -0.6025,2.27028 -0.8383,2.30521 h -0.20955 v 0.41916 h 0.10478 l 0.10482,-0.10479 h 0.10478 v 0.20956 l -0.20955,0.20956 -0.3143,-0.10479 v 0.20956 q 0.4191,0.0523 0.4191,0.31431 l -0.4191,1.57175 v 0.31438 h -0.1048 q -0.38421,-0.10482 -1.04786,-2.41 l -0.20957,-0.31434 0.31438,-1.04783 0.10478,0.10477 h 0.10482 l 0.10482,-0.10477 h 0.10478 l 0.31436,0.10477 0.10479,-0.10477 -0.10479,-0.31438 h -0.20956 l -0.41915,0.31438 v -0.41916 l 0.20958,-0.31435 v -0.52396 h 0.20957 q 0,0.41914 0.83824,0.41914 v -0.41914 h -0.31434 v -0.10476 l 0.20956,-0.31437 v -0.10479 l -0.20956,-0.20959 q -0.31434,0 -0.31434,0.31437 l -0.10479,0.10481 h -0.10481 v -0.10481 l 0.10481,-0.9431 q -0.31437,0 -0.31437,-0.41908 l -0.41914,-0.20958 -0.10482,0.52391 h -0.73345 v -0.52391 q 0,-0.94305 0.5239,-0.94305 z m -3.03871,0.10482 h 0.20954 q 1.3622,0 1.3622,0.31435 v 0.31436 l -0.20957,0.31437 v 0.20955 q 0.48899,0 0.83826,2.09566 h -0.20961 v 0.20958 l 0.10482,-0.10479 h 0.1048 l 0.62873,2.20044 -0.2096,0.20955 v 0.20954 l 0.10482,-0.10478 h 0.10481 q 0.41909,0.41913 0.52387,1.57172 l 0.8383,1.67657 q -0.22702,2.82916 -0.8383,2.82916 0,0.20955 -0.4191,0.20955 l -0.10478,-0.10481 -0.52395,0.10481 h -0.94304 q -0.41914,-0.17462 -0.8383,-1.25739 l 0.20959,-0.20956 q -0.46278,0 -1.99091,-5.65831 -0.2095,-0.0262 -0.3143,-0.73349 v -0.20952 q 0.3842,-2.2005 0.62867,-2.2005 l -0.10479,-0.10482 v -0.10478 q 0.18341,-1.67657 1.04788,-1.67657 z m 4.29611,0.20955 -0.10482,0.41916 h 0.41916 l 0.10478,-0.41916 z m 0,0.94308 -0.10482,0.41914 0.10482,-0.10482 h 0.10479 l 0.10481,0.10482 h 0.1048 v -0.2096 l 0.10475,-0.10479 -0.10475,-0.10476 -0.31437,-0.10482 z m 0.73345,0.41914 h 0.20959 l 0.10482,-0.41914 q -0.15718,0 -0.31437,0.41914 z m -5.86787,0.31434 h 0.10481 l 0.31434,-0.31434 v -0.10482 h -0.10481 q -0.15715,0 -0.31436,0.41916 z m -3.35307,0.10479 0.10479,0.10481 h 0.10481 l 0.20956,-0.31437 h -0.20956 z m 3.45787,0.31435 0.10478,0.10482 h 0.10482 v -0.41917 h 0.20959 v 0.20961 h 0.10482 v -0.20961 l -0.10482,-0.10479 h -0.10479 q -0.15715,0 -0.31436,0.41914 z m -3.2483,0.20959 v 0.10478 h 0.31434 v -0.20955 z m 1.25739,0.20953 v 0.31434 h 0.20958 l -0.10482,-0.31434 z m 2.93396,0.20958 h 0.10479 l 0.20956,-0.20958 h -0.10479 z m 4.29616,1.46696 v 0.10478 l 0.20953,0.2096 h 0.10478 l -0.10478,-0.31437 z m -2.82917,0.41914 0.10477,0.10482 h 0.10479 q 0,-0.20956 0.41915,-0.20956 l -0.20955,-0.2096 h -0.10482 z m -1.99089,0.94306 v 0.20955 l 0.20956,0.31434 -0.20956,0.20962 v 0.10479 h 0.10479 l 0.52388,-0.41915 -0.31429,-0.31437 0.10477,-0.10478 v -0.10479 h -0.10477 z m -3.24831,0.31434 v 0.10481 l 0.10479,0.31438 h 0.31437 v -0.10482 l -0.31437,-0.31437 z m 5.02964,2.30525 v 0.20959 h 0.31431 v -0.20959 z m -4.19139,2.09566 -0.10474,0.10478 v 0.2096 h 0.10474 l 0.20958,-0.2096 -0.10482,-0.10478 z" />
    <g
       id="g914"
       transform="matrix(0.25,0,0,0.25,-295.80893,83.957519)">
      <rect
         y="7.6895151"
         x="-419.1478"
         height="119.46662"
         width="119.46662"
         id="rect903"
         style="opacity:1;fill:#838383;fill-opacity:1;fill-rule:nonzero;stroke:none;stroke-width:35.71232224;stroke-linecap:butt;stroke-linejoin:miter;stroke-miterlimit:4;stroke-dasharray:none;stroke-opacity:1;paint-order:markers stroke fill"
         inkscape:export-xdpi="340.17838"
         inkscape:export-ydpi="340.17838" />
      <g
         style="fill:#f9f9f9"
         transform="matrix(2.8183336,0,0,2.8183336,556.24155,-253.77282)"
         id="g901">
        <path
           d="m -324.35172,96.225531 q 2.83883,0.2931 3.29671,0.65936 l 0.43959,-0.43955 q 0.49448,0 0.65932,2.41757 l -0.21974,0.87914 q -0.87913,0 -0.87913,-1.53847 l -1.3187,1.75825 v 1.098909 h 0.21974 l 0.65933,-0.21974 v 0.21974 l 0.21974,0.21974 v 0.21974 q 0.65937,0 0.65937,-0.65936 h 0.43955 v 0.21974 q 0,2.28941 -0.43955,3.51652 l 0.21974,1.09891 -0.21974,1.09892 0.43955,4.6154 -0.21974,0.65936 h 0.21974 l 0.87914,0.21974 0.65932,-0.21974 1.09892,0.43956 q 0,2.19783 -1.09892,3.51652 l -1.53846,-0.21974 h -0.43955 v 1.53846 l -0.21974,0.21974 v 0.21974 l 0.65932,0.43959 0.87914,-0.21974 0.21974,0.21974 v 0.21974 q 0,3.29671 -1.75824,3.29671 l -1.97805,0.43959 v -0.21974 l -0.21974,0.21974 h -0.87914 l -0.21974,-0.21974 -0.21974,0.21974 h -1.75825 v -0.43937 q 0.87911,0 0.87911,-0.43956 l -0.87911,-0.87914 q 0,0.43959 -1.31872,0.65937 v 0.21974 q 0,0.43955 0.87913,0.43955 v 0.21974 h -1.09891 q -1.70331,0 -2.1978,-1.09891 v -1.3187 l 0.87911,-1.09891 0.21974,0.21974 0.87914,-0.43955 -0.43955,-1.75828 q 0.1648,-2.85716 0.43955,-2.85716 l -0.21974,-0.21974 v -0.21974 q 0,-0.43959 0.65933,-0.43959 l -0.43956,-1.31869 v -3.51648 l -0.21974,-0.87914 0.43956,-4.39566 -0.43956,-1.75825 z m 1.31869,1.75828 v 0.65932 l 0.43955,-0.43955 -0.21974,-0.21974 z m -6.59345,5.274759 h 0.65932 v 0.21974 l -0.43955,3.07697 h -0.21974 l -0.21974,-0.21974 h -0.21974 l -0.21974,0.21974 v 0.21974 l 0.65936,0.21974 0.21974,-0.21974 0.43956,0.65933 q -0.0549,0.49452 -1.97802,1.97805 0,0.43955 -1.53847,1.97802 v 0.43959 l 2.19779,0.21974 1.09892,-0.21974 0.21974,0.21974 v 0.21974 l -0.43955,0.43955 0.21974,0.21974 v 0.21974 q -0.32961,2.41761 -0.87914,2.41761 h -2.85716 l -0.87914,0.21974 -2.19779,-0.65936 h -0.43959 q 0,0.65936 -0.43955,0.65936 h -0.65933 v -2.19783 q 0,-0.54946 0.8791,-0.65936 v -0.21974 l -0.21974,-0.87911 q 0.18324,-0.97072 7.25282,-8.57151 z m 5.27476,2.63738 0.21974,0.21974 h 0.21974 l -0.21974,0.21974 v 0.87914 q 0.87914,0 0.87914,0.43955 l -0.21974,0.21975 h 0.43955 q 0.58607,0 0.87914,-1.3187 -0.65936,0 -0.65936,-1.5385 h -0.21974 v 0.87914 h -0.43956 l -0.21974,-1.09891 q -0.49448,0 -0.65932,1.09891 z m -0.87914,5.93413 q 0,0.65933 -0.65933,0.65933 l -0.65936,-0.21974 v 0.21974 l -0.65933,0.21974 v 0.21974 h 0.87911 v 0.65936 h -0.43956 v 0.21974 q 1.09892,0 1.09892,0.87914 l 1.09891,0.21974 q 0.87911,-0.21974 0.87911,-1.31869 -0.73259,-0.65936 -1.31869,-0.65936 v -0.43955 h 0.87914 q 0,-0.3663 -1.09892,-0.65933 z m -6.81323,1.31869 v 1.09892 h 0.21974 l 1.09891,-0.43959 -0.21974,-1.09892 h -0.65936 z"
           style="font-style:normal;font-variant:normal;font-weight:normal;font-stretch:normal;font-size:10.58333302px;line-height:1.25;font-family:'Armalite Rifle';-inkscape-font-specification:'Armalite Rifle';letter-spacing:0px;word-spacing:0px;fill:#f9f9f9;fill-opacity:1;stroke:none;stroke-width:0.93773657"
           id="path892"
           inkscape:connector-curvature="0" />
        <path
           d="m -337.84644,122.05323 0.15957,0.23935 v 0.31916 q -0.34575,0.45878 -1.35638,0.95744 -0.31915,0.88432 -0.31915,2.4734 l 0.0798,2.87235 -0.0798,0.6383 0.71809,0.5585 q 0,0.21278 1.1968,0.47873 l 0.0798,0.55851 q 0,0.44548 -1.43617,0.55852 -0.87766,0 -0.87766,-0.39894 l -0.0798,-0.55851 q -0.39894,0 -0.71809,0.47872 -2.15426,-1.8617 -2.15426,-4.06915 0.31915,-2.8657 0.95744,-3.19149 1.66224,-1.83511 3.59043,-1.83511 z m 1.27659,0 0.31915,0.0798 0.31915,-0.0798 1.11702,0.31915 h 0.15957 l 0.39894,-0.31915 h 0.0798 q 0.17951,0 0.31914,0.79787 h -0.0798 l 0.0798,0.0798 v 0.0798 l -0.0798,0.47872 0.0798,0.0798 q -0.0798,1.67554 -0.71808,1.67554 l -0.23936,0.15957 q -0.3391,-0.45878 -0.39894,-0.95745 l 0.0798,-0.0798 q -0.16622,0 -0.71808,-0.79787 -1.29654,-0.50532 -1.35638,-0.79788 v -0.47872 q 0.0531,-0.23936 0.63829,-0.23936 z m 0.6383,0.39894 v 0.31914 q 0.15957,0 0.15957,0.23936 h 0.0798 l 0.31915,-0.15957 v -0.0798 l -0.15957,-0.15957 -0.15958,0.15957 v -0.15957 l 0.0798,-0.0798 v -0.0798 z m 0.23936,0.79786 v 0.15958 l 0.23937,0.0798 0.15957,-0.15957 v 0.23936 h 0.0798 v -0.23936 l -0.0798,-0.0798 z m 0.15958,3.19149 q 0.27926,0.47872 0.6383,0.47872 l 0.0798,-0.0798 0.23937,0.31915 h 0.0798 q 0,-0.31915 0.15957,-0.31915 l -0.15957,-0.31915 0.55851,-0.0798 -0.0798,0.55852 q 0.21942,0 0.31916,0.79786 -0.0997,0.81782 -0.23937,0.95745 -0.19947,0 -0.63829,-0.55851 h -0.0798 l -0.31914,0.15957 q -0.11309,-0.39893 -0.5585,-0.39893 l -0.23937,0.23936 v 0.23937 l 0.23937,0.31914 -0.15959,0.15958 -0.0798,-0.0798 h -0.0798 v 0.15958 l -0.0798,-0.0798 h -0.15959 v 0.0798 q 0.15959,0 0.15959,0.31914 0.79786,0.13964 0.79786,0.31915 v 0.39894 l 0.39894,0.0798 -0.0798,-0.0798 v -0.0798 l 0.23936,-0.23937 h 0.0798 q 0,0.23937 0.15957,0.23937 l 0.47872,-0.15957 h 0.0798 v 1.27658 l -0.15957,0.15959 h -0.0798 q -0.55851,-0.26597 -0.55851,-1.11703 -0.21277,0.0266 -0.31915,0.39894 l -0.0798,-0.0798 h -0.63831 q 0,0.54522 -1.1968,0.79788 l -0.23937,-0.71809 q 0.32581,-0.56516 0.87766,-1.03723 l -0.0798,-0.0798 v -0.39894 l 0.0798,-0.0798 -0.0798,-0.0798 0.0798,-0.31914 q 0,-0.87766 -0.55851,-0.87766 h -0.63829 l -0.15958,-0.15957 v -0.15958 q 0.11309,-0.87766 0.47872,-0.87766 z m 0,0.55852 0.0798,0.23936 q 0.47872,-0.10641 0.47872,-0.23936 z m 0.71808,0.23936 v 0.0798 l 0.15957,0.23937 -0.0798,0.0798 v 0.0798 l 0.0798,0.0798 h 0.23937 l -0.23937,-0.55851 z m 0.47872,0.15957 v 0.0798 l 0.15959,0.31914 h 0.15957 l 0.0798,-0.39894 -0.23936,-0.15957 z m -7.26063,1.91489 v 0.0798 q 0,0.47872 0.39893,0.47872 l 0.31915,-0.23936 v -0.0798 h -0.23935 v -0.47872 q -0.47873,0.0798 -0.47873,0.23936 z"
           style="font-style:normal;font-variant:normal;font-weight:normal;font-stretch:normal;font-size:10.58333302px;line-height:1.25;font-family:'Armalite Rifle';-inkscape-font-specification:'Armalite Rifle';letter-spacing:0px;word-spacing:0px;fill:#f9f9f9;fill-opacity:1;stroke:none;stroke-width:0.34042552"
           id="path894"
           inkscape:connector-curvature="0" />
        <path
           d="m -317.44429,122.07982 1.03723,0.15957 0.0798,-0.0798 h 0.0798 l 0.23936,0.0798 1.2766,-0.0798 h 0.55851 q 0.23936,0.0798 0.23936,0.47872 v 0.39894 q 0,0.11966 -0.79787,0.39894 v 0.0798 q 0,1.26995 1.35638,5.18617 l 0.0798,0.0798 v 0.55852 q -0.39893,0.48537 -0.5585,1.8351 l -0.31916,0.23937 h -0.55851 l -0.95744,0.0798 q -0.379,0 -1.91489,-8.05851 h -0.55851 q -0.23937,0 -0.23937,-1.03723 l 0.15957,-0.15958 0.0798,0.0798 z m 6.94149,0 0.71809,0.0798 0.23935,-0.0798 1.99468,0.15957 0.31915,-0.0798 0.0798,0.0798 q 0,1.19682 -0.71808,1.19682 h -0.71809 l 0.15958,0.63829 q -0.45878,1.72873 -0.63831,1.75532 h -0.15957 v 0.31916 h 0.0798 l 0.0798,-0.0798 h 0.0798 v 0.15957 l -0.15957,0.15957 -0.23935,-0.0798 v 0.15957 q 0.31914,0.0399 0.31914,0.23937 l -0.31914,1.1968 v 0.23937 h -0.0798 q -0.29254,-0.0798 -0.79786,-1.83511 l -0.15958,-0.23935 0.23937,-0.79788 0.0798,0.0798 h 0.0798 l 0.0798,-0.0798 h 0.0798 l 0.23936,0.0798 0.0798,-0.0798 -0.0798,-0.23937 h -0.15957 l -0.31915,0.23937 v -0.31915 l 0.15957,-0.23936 v -0.39894 h 0.15958 q 0,0.31914 0.63829,0.31914 v -0.31914 h -0.23935 v -0.0798 l 0.15957,-0.23937 v -0.0798 l -0.15957,-0.15957 q -0.23937,0 -0.23937,0.23936 l -0.0798,0.0798 h -0.0798 v -0.0798 l 0.0798,-0.71809 q -0.23937,0 -0.23937,-0.31914 l -0.31914,-0.15959 -0.0798,0.39894 h -0.55851 v -0.39894 q 0,-0.71808 0.39894,-0.71808 z m -2.31383,0.0798 h 0.15958 q 1.03723,0 1.03723,0.23936 v 0.23936 l -0.15958,0.23937 v 0.15957 q 0.37234,0 0.6383,1.59574 h -0.15958 v 0.15958 l 0.0798,-0.0798 h 0.0798 l 0.47872,1.67552 -0.15958,0.15958 v 0.15957 l 0.0798,-0.0798 h 0.0798 q 0.31914,0.31914 0.39894,1.1968 l 0.63829,1.2766 q -0.17287,2.15426 -0.63829,2.15426 0,0.15957 -0.31915,0.15957 l -0.0798,-0.0798 -0.39893,0.0798 h -0.7181 q -0.31914,-0.13297 -0.63829,-0.95744 l 0.15957,-0.15957 q -0.35239,0 -1.51595,-4.30852 -0.15957,-0.02 -0.23936,-0.55851 v -0.15957 q 0.29255,-1.67554 0.47873,-1.67554 l -0.0798,-0.0798 v -0.0798 q 0.13963,-1.2766 0.79788,-1.2766 z m 3.27127,0.15957 -0.0798,0.31915 h 0.31915 l 0.0798,-0.31915 z m 0,0.71809 -0.0798,0.31915 0.0798,-0.0798 h 0.0798 l 0.0798,0.0798 h 0.0798 v -0.15958 l 0.0798,-0.0798 -0.0798,-0.0798 -0.23937,-0.0798 z m 0.55851,0.31915 h 0.15959 l 0.0798,-0.31915 q -0.11966,0 -0.23937,0.31915 z m -4.46808,0.23935 h 0.0798 l 0.23935,-0.23935 v -0.0798 h -0.0798 q -0.11966,0 -0.23936,0.31915 z m -2.55319,0.0798 0.0798,0.0798 h 0.0798 l 0.15957,-0.23937 h -0.15957 z m 2.63298,0.23936 0.0798,0.0798 h 0.0798 v -0.31916 h 0.15959 v 0.15959 h 0.0798 v -0.15959 l -0.0798,-0.0798 h -0.0798 q -0.11966,0 -0.23936,0.31915 z m -2.4734,0.15957 v 0.0798 h 0.23935 v -0.15957 z m 0.95745,0.15959 v 0.23935 h 0.15957 l -0.0798,-0.23935 z m 2.23404,0.15957 h 0.0798 l 0.15957,-0.15957 h -0.0798 z m 3.27128,1.11701 v 0.0798 l 0.15957,0.15958 h 0.0798 l -0.0798,-0.23937 z m -2.15426,0.31916 0.0798,0.0798 h 0.0798 q 0,-0.15957 0.31915,-0.15957 l -0.15957,-0.15958 h -0.0798 z m -1.51596,0.71809 v 0.15957 l 0.15957,0.23935 -0.15957,0.15959 v 0.0798 h 0.0798 l 0.39893,-0.31916 -0.23936,-0.23935 0.0798,-0.0798 v -0.0798 h -0.0798 z m -2.47341,0.23935 v 0.0798 l 0.0798,0.23937 h 0.23937 v -0.0798 l -0.23937,-0.23937 z m 3.8298,1.75532 v 0.15957 h 0.23935 v -0.15957 z m -3.19149,1.59574 -0.0798,0.0798 v 0.15958 h 0.0798 l 0.15957,-0.15958 -0.0798,-0.0798 z"
           style="font-style:normal;font-variant:normal;font-weight:normal;font-stretch:normal;font-size:10.58333302px;line-height:1.25;font-family:'Armalite Rifle';-inkscape-font-specification:'Armalite Rifle';letter-spacing:0px;word-spacing:0px;fill:#f9f9f9;fill-opacity:1;stroke:none;stroke-width:0.34042552"
           id="path896"
           inkscape:connector-curvature="0" />
      </g>
    </g>
    <rect
       y="77.373306"
       x="-489.42825"
       height="50.174881"
       width="58.388557"
       id="rect905"
       style="opacity:1;fill:#838383;fill-opacity:1;fill-rule:nonzero;stroke:none;stroke-width:16.18000031;stroke-linecap:butt;stroke-linejoin:miter;stroke-miterlimit:4;stroke-dasharray:none;stroke-opacity:1;paint-order:markers stroke fill" />
  </g>
</svg>
